<?xml version="1.0" encoding="utf-8"?>
<!-- Generator: Adobe Illustrator 16.0.0, SVG Export Plug-In . SVG Version: 6.00 Build 0)  -->
<!DOCTYPE svg PUBLIC "-//W3C//DTD SVG 1.1//EN" "http://www.w3.org/Graphics/SVG/1.1/DTD/svg11.dtd">
<svg version="1.1" id="Capa_1" xmlns="http://www.w3.org/2000/svg" xmlns:xlink="http://www.w3.org/1999/xlink" x="0px" y="0px"
	 width="64px" height="64px" viewBox="0 0 64 64" enable-background="new 0 0 64 64" xml:space="preserve">
<path fill="#FFFFFF" d="M50.218,47.667c0,4.687-3.813,8.5-8.5,8.5H18.667c-4.687,0-8.5-3.813-8.5-8.5c0-1.933,1.567-3.5,3.5-3.5
	s3.5,1.567,3.5,3.5c0,0.827,0.673,1.5,1.5,1.5h23.051c0.827,0,1.5-0.673,1.5-1.5c0-1.933,1.567-3.5,3.5-3.5
	S50.218,45.734,50.218,47.667z M27.718,40.643c0.657,0.655,1.547,1.024,2.475,1.024c0.928,0,1.818-0.369,2.475-1.024l10.333-10.334
	c1.367-1.367,1.367-3.583,0-4.95c-1.367-1.366-3.584-1.367-4.949,0l-4.358,4.358V9.84c0-1.933-1.566-3.5-3.5-3.5
	c-1.933,0-3.5,1.567-3.5,3.5v19.877l-4.359-4.359c-1.367-1.366-3.583-1.366-4.95,0c-1.367,1.367-1.367,3.583,0,4.95L27.718,40.643z"
	/>
</svg>
